<svg width="52" height="53" viewBox="0 0 52 53" fill="none" xmlns="http://www.w3.org/2000/svg">
<path d="M51.4521 10.689C51.4521 5.16612 46.975 0.688965 41.4521 0.688965H10C4.47715 0.688965 0 5.16612 0 10.689V42.1411C0 47.664 4.47715 52.1411 10 52.1411H41.4521C46.975 52.1411 51.4521 47.664 51.4521 42.1411V10.689Z" fill="#C4C4C4"/>
<path d="M34.9761 18.415H28.9761C28.5641 18.415 27.9871 18.654 27.6961 18.945L20.2571 26.384C20.1168 26.525 20.0381 26.7157 20.0381 26.9145C20.0381 27.1134 20.1168 27.3041 20.2571 27.445L26.6961 33.884C26.837 34.0243 27.0277 34.1031 27.2266 34.1031C27.4254 34.1031 27.6161 34.0243 27.7571 33.884L35.1961 26.445C35.4881 26.153 35.7261 25.577 35.7261 25.165V19.165C35.7255 18.9663 35.6464 18.7758 35.5058 18.6353C35.3653 18.4948 35.1748 18.4156 34.9761 18.415ZM31.2261 24.415C31.029 24.415 30.8339 24.3761 30.6519 24.3006C30.4699 24.2252 30.3045 24.1146 30.1652 23.9752C30.0259 23.8358 29.9154 23.6704 29.8401 23.4883C29.7648 23.3062 29.726 23.1111 29.7261 22.914C29.7261 22.717 29.765 22.5219 29.8405 22.3399C29.916 22.1578 30.0265 21.9925 30.1659 21.8532C30.3053 21.7139 30.4707 21.6034 30.6528 21.5281C30.8349 21.4527 31.03 21.414 31.2271 21.414C31.625 21.4142 32.0066 21.5724 32.2879 21.8539C32.5692 22.1354 32.7272 22.5171 32.7271 22.915C32.7269 23.313 32.5687 23.6946 32.2872 23.9759C32.0057 24.2572 31.624 24.4152 31.2261 24.415Z" fill="white"/>
<path d="M17.7261 26.915L26.2261 18.415H24.9761C24.5641 18.415 23.9871 18.654 23.6961 18.945L16.2571 26.384C16.1168 26.525 16.0381 26.7157 16.0381 26.9145C16.0381 27.1134 16.1168 27.3041 16.2571 27.445L22.6961 33.884C22.837 34.0243 23.0277 34.1031 23.2266 34.1031C23.4254 34.1031 23.6161 34.0243 23.7571 33.884L24.2271 33.414L17.7271 26.914L17.7261 26.915Z" fill="white"/>
</svg>
